<?xml version="1.0" encoding="iso-8859-1"?>
<!-- Generator: Adobe Illustrator 15.1.1, SVG Export Plug-In . SVG Version: 6.00 Build 0)  -->
<!DOCTYPE svg PUBLIC "-//W3C//DTD SVG 1.1//EN" "http://www.w3.org/Graphics/SVG/1.1/DTD/svg11.dtd">
<svg version="1.1" xmlns="http://www.w3.org/2000/svg" xmlns:xlink="http://www.w3.org/1999/xlink" x="0px" y="0px"
	 width="595.28px" height="841.891px" viewBox="0 0 595.28 841.891" style="enable-background:new 0 0 595.28 841.891;"
	 xml:space="preserve">
<g id="New_Layer">
	<g>
		<path style="fill-rule:evenodd;clip-rule:evenodd;fill:#010101;" d="M21,13.5c-3.3,1.4-6.1,2.5-6.2,2.5c-0.2,0-0.3-0.9-0.3-2
			s-0.7-2-1.5-2c-1.3,0-1.5,3.1-1.5,21.6c0,16.8,0.3,21.5,1.3,21.2c0.9-0.399,1.3-5.3,1.7-18.3L15,18.6l5.5-2.2
			c6.9-2.9,13.9-3.1,17.1-0.5c2.3,1.9,2.4,2.4,2.7,20.5C40.6,51.8,40.9,55,42.1,55c1.2,0,1.4-2.9,1.4-17.4c0-10.1-0.5-18.6-1.1-20.5
			C40.2,10.7,31.4,9.2,21,13.5z"/>
		<path style="fill-rule:evenodd;clip-rule:evenodd;fill:#010101;" d="M60.9,12c-3.2,1.3-7.2,6.6-8.5,11.3
			c-1.6,5.8-0.7,20.4,1.5,24.5C56.6,53,60.8,55,69.1,55c3.9,0,8.6-0.3,10.3-0.6c6.2-1.301,2.9-2.4-6.8-2.4c-9.2,0-10.2-0.2-12.9-2.5
			c-2.9-2.5-3.4-3.5-4.8-11.8L54.3,34h14.6c16.7,0,16.8,0,15.7-8.6c-1.3-9.6-6.7-14.4-16.1-14.3C65.5,11.1,62.1,11.5,60.9,12z
			 M75.6,15.6c3.5,1.7,5.9,6.7,5.9,11.9V31H67.9H54.3l0.7-4.3c0.9-5.3,2.9-9.1,5.7-11.1C63.6,13.5,71.7,13.5,75.6,15.6z"/>
		<path style="fill-rule:evenodd;clip-rule:evenodd;fill:#010101;" d="M149.6,12.1c-1.3,0.5-3.6,1.8-5.1,2.9c-3.6,2.6-4,2.5-4-0.5
			c0-1.6-0.6-2.5-1.5-2.5c-1.3,0-1.5,2.8-1.3,21.2c0.2,15.8,0.6,21.2,1.6,21.6c0.9,0.3,1.2-3.6,1.2-17.3V19.9l5.3-2.4
			c2.8-1.4,5.8-2.5,6.5-2.5c0.601,0,1.2-0.9,1.2-2C153.5,10.8,153.1,10.7,149.6,12.1z"/>
		<path style="fill-rule:evenodd;clip-rule:evenodd;fill:#010101;" d="M165.5,12.8c-5.8,2.8-8,8.6-8,20.6c0,8,0.4,10.8,2,14.1
			c3.1,6.4,6.7,7.9,17.8,7.3c5.2-0.2,9.7-0.899,10.4-1.6C188.6,52.3,186.6,52,178.6,52c-5.6,0-11.1-0.5-12.3-1.1
			c-2.6-1.4-5.8-8.5-5.8-13.101v-3.7l14.8-0.3l14.7-0.3l-0.1-6.1c-0.101-7.5-2.5-12.2-7.4-14.6C178,10.5,170,10.5,165.5,12.8z
			 M182.5,16.7c1.9,1.7,3.5,4.4,4,6.8c1.9,7.9,2.6,7.5-12.5,7.5c-15.2,0-14.8,0.3-12.5-8.2c1.6-5.7,6-8.8,12.6-8.8
			C178.5,14,180,14.5,182.5,16.7z"/>
		<path style="fill-rule:evenodd;clip-rule:evenodd;fill:#010101;" d="M387.4,400.4c-10.2,3.6-14.9,9.2-14.9,17.5
			c0,2.9,0.4,6.1,1,7.1c1.8,3.4,6.7,6,14.1,7.5c8.5,1.8,11.301,3.4,14,8c1.9,3.2,2.101,3.2,6.2,2.3c5.8-1.3,13.601-4.899,17.601-8.3
			c12.199-10.4,5.199-28.5-13.2-34C406.1,398.7,392.3,398.6,387.4,400.4z"/>
		<path style="fill-rule:evenodd;clip-rule:evenodd;fill:#010101;" d="M93.7,31.6C94,51.1,94,51.2,96.5,53.2c2.1,1.7,3.5,2,9.5,1.6
			c4.4-0.3,8.5-1.3,11.2-2.6c5.3-2.7,5.3-2.7,5.3,0.3c0,1.6,0.6,2.5,1.5,2.5c1.3,0,1.5-3.1,1.5-21.5c0-18.3-0.2-21.5-1.5-21.5
			c-1.2,0-1.5,2.9-1.7,17.7L122,47.5l-6,2.4c-8.2,3.3-15,3.399-17.6,0.199c-1.7-2.1-1.9-4.1-1.9-20.2c0-15.5-0.2-17.9-1.6-17.9
			C93.6,12,93.4,14.4,93.7,31.6z"/>
	</g>
</g>
<g id="MasterLayer_1">
</g>
</svg>
